<svg width="121" height="120" viewBox="0 0 121 120" fill="none" xmlns="http://www.w3.org/2000/svg">
  <path
    d="M30.5718 18.0388C24.1425 19.6731 16.7948 15.0317 15.7451 8.55989C15.8107 8.88674 8.8566 6.79484 8.20055 6.46798C5.77317 5.22592 3.93624 2.67642 1.18085 2.02271C1.31206 7.38319 5.37955 11.6977 3.80504 17.3197C3.67383 17.7773 3.54262 18.2349 3.2802 18.7579C5.57636 18.8233 7.74132 20.1307 8.8566 22.0918C9.97188 24.053 9.97188 26.6025 8.8566 28.5637C11.1528 28.629 13.5145 28.6944 15.5483 29.675C17.582 30.6555 19.2221 32.8782 18.7629 35.0355C18.6317 35.8199 18.3693 36.8659 19.0909 37.1927C19.3534 37.3235 19.6814 37.1927 19.9438 37.1274C22.7648 36.539 37.1322 39.7422 37.4603 42.7493C37.3946 41.8995 36.673 27.9099 39.1004 28.8905C34.508 26.9947 29.7845 22.9417 30.5718 18.0388ZM34.0488 36.6698C28.6692 27.7138 17.1228 25.0336 11.4808 16.2084C11.0216 15.5547 12.1368 14.8356 12.5961 15.5547C18.1725 24.3145 29.7189 26.9294 35.0985 35.9507C35.4921 36.6044 34.4424 37.3235 34.0488 36.6698Z"
    fill="#509E8E" />
  <path
    d="M53.7303 57.0004C48.4819 59.746 41.1341 60.8573 36.9354 56.2812C33.7864 63.4721 23.9457 66.4793 16.926 62.4262C17.3196 62.6223 10.1687 67.3291 9.44708 67.656C6.42926 68.898 2.62419 68.5712 0 70.5323C5.31398 74.6508 12.4649 74.2585 16.7948 80.0766C17.1228 80.5342 17.5165 81.0572 17.7789 81.6455C19.5502 79.619 22.3712 78.6384 25.1266 79.1614C27.8164 79.6844 30.3094 81.6455 31.359 84.2604C33.0648 82.2339 34.8361 80.142 37.3291 79.0307C39.7565 77.9194 43.1023 78.1808 44.8736 80.3381C45.5297 81.1226 46.3825 82.1685 47.1698 81.7109C47.4978 81.5148 47.629 81.1879 47.7602 80.8611C49.2691 77.854 62.8493 67.1984 66.0639 69.2903C65.0799 68.7673 50.9749 58.3732 53.7303 57.0004ZM55.436 67.656C53.3366 67.3945 51.3029 66.8061 49.1379 66.5446C46.3169 66.2178 43.6271 66.8061 40.8717 67.5906C37.9195 68.4404 34.9017 69.3556 31.9495 70.1401C27.7508 71.2514 21.4527 73.3433 17.3852 70.9899C16.6636 70.5977 17.3196 69.4864 17.9757 69.8786C22.3712 72.4935 30.047 69.3556 34.5737 68.1136C37.9851 67.1984 41.3966 65.8256 44.8736 65.3026C48.6131 64.7796 51.9589 65.9563 55.6328 66.3485C56.4857 66.4793 56.2888 67.7213 55.436 67.656Z"
    fill="#509E8E" />
  <path
    d="M63.571 0.388428C60.9468 6.0104 58.1914 11.044 51.4341 12.0246C53.7303 12.8744 53.3366 17.4505 52.615 18.954C50.8437 22.5495 47.7602 24.576 45.136 27.2562C48.0227 28.6944 49.3348 30.9824 49.2691 34.1856C49.2035 37.3889 47.5634 40.1345 45.6609 42.6186C50.122 40.6575 53.9271 49.8749 54.9768 52.7513C55.3048 53.6011 55.0424 53.4704 55.3704 53.8626C56.092 54.647 57.0105 54.1241 57.4697 53.405C57.929 52.6859 57.7978 51.836 57.7978 50.9862C57.7978 46.4102 58.8474 42.5532 61.7996 38.9578C57.1417 35.82 64.2926 30.0019 67.1136 27.91C65.0799 28.3676 64.3582 23.3339 64.4894 22.6148C65.0143 19.0848 67.048 17.3197 69.2786 15.0317C66.5232 15.2932 64.3582 3.26479 63.571 0.388428ZM60.0283 19.4116C58.3226 28.1715 56.2232 36.6698 57.6665 45.5604C57.7978 46.3448 56.5513 46.4102 56.4201 45.6257C54.9111 36.6044 57.0761 28.0407 58.7818 19.1501C58.913 18.3003 60.1595 18.5618 60.0283 19.4116Z"
    fill="#509E8E" />
  <path
    d="M31.8839 35.8853C42.5775 54.3855 59.6347 69.0942 79.7097 77.2657C80.6282 77.6579 81.2186 76.2851 80.3002 75.8928C60.4875 67.8521 43.6927 53.2742 33.1304 35.0355C32.6055 34.1856 31.3591 35.1008 31.8839 35.8853Z"
    fill="#509E8E" />
  <path
    d="M54.8455 44.3183C54.0582 52.6859 56.2232 60.9227 61.1435 67.7868C61.734 68.5712 62.9149 67.656 62.39 66.8715C57.7321 60.3344 55.6327 52.4897 56.3544 44.5144C56.42 43.5338 54.9111 43.3377 54.8455 44.3183Z"
    fill="#509E8E" />
  <path
    d="M24.4049 49.0905C27.9476 50.7901 31.5558 52.4898 35.3609 53.5358C39.1004 54.5817 43.0367 55.0393 46.9073 55.6277C47.4322 55.693 47.629 54.8432 47.0386 54.7778C43.2991 54.1895 39.4284 53.7319 35.7545 52.7513C31.8839 51.7707 28.2756 50.0711 24.733 48.306C24.2737 48.0446 23.8801 48.829 24.4049 49.0905Z"
    fill="#509E8E" />
  <path
    d="M47.6291 55.3662C44.4144 51.117 39.8221 48.1099 34.6393 46.8679C34.1145 46.7371 33.9833 47.587 34.5081 47.7177C39.4941 48.9598 43.8896 51.8361 46.973 55.8892C47.2354 56.3468 47.9571 55.8238 47.6291 55.3662Z"
    fill="#509E8E" />
  <path
    d="M33.524 55.497C37.9851 56.2815 42.5774 56.3469 47.1042 55.8893C47.629 55.8239 47.5634 54.9741 47.0386 55.0394C42.5774 55.5624 38.1163 55.4316 33.6552 54.6472C33.1304 54.5164 32.9992 55.3663 33.524 55.497Z"
    fill="#509E8E" />
  <path
    d="M30.7686 44.1876C28.8004 45.8873 29.0628 49.2866 31.2934 50.4633C32.4087 51.0517 33.7208 50.9863 34.9673 50.7248C35.6233 50.5287 36.345 50.3326 36.8042 49.8096C37.4602 49.0905 37.5915 48.1099 37.5915 47.1947C37.5915 46.1488 37.4602 45.1028 36.8042 44.3183C36.2138 43.5993 35.2953 43.2724 34.3768 43.207C33.1303 43.0109 31.7526 43.3378 30.7686 44.1876Z"
    fill="#9F4641" />
  <path
    d="M28.6692 52.2284C26.9635 53.7319 27.1603 56.6736 29.1285 57.7196C30.1125 58.2425 31.2934 58.1772 32.3431 57.9157C32.9336 57.7849 33.524 57.5235 33.9176 57.1313C34.5081 56.5429 34.5737 55.6277 34.5737 54.8432C34.5737 53.928 34.4425 53.0128 33.852 52.2937C33.3272 51.7054 32.5399 51.3785 31.6871 51.3131C30.6374 51.2478 29.4565 51.5093 28.6692 52.2284Z"
    fill="#9F4641" />
  <path
    d="M26.5043 45.1026C26.1107 44.7103 25.6515 44.3835 25.061 44.2527C22.4368 43.599 20.5343 46.0178 20.5999 48.3711C20.5999 49.0249 20.7311 49.8093 21.1248 50.3323C21.4528 50.7245 21.912 51.0514 22.3712 51.2475C24.0114 51.9666 25.9795 51.5744 26.898 50.0054C27.7508 48.5673 27.6196 46.3446 26.5043 45.1026Z"
    fill="#9F4641" />
  <path
    d="M88.1885 12.5778C93.7635 13.4059 99.1831 17.1228 101.642 22.1975C102.555 24.0944 103.417 26.0706 103.681 28.1159C104.572 35.86 99.2465 44.1457 92.0803 47.079C91.2828 47.4656 90.4558 47.723 89.6879 48.2387C85.0104 51.6206 92.543 54.4455 95.0909 55.1522C97.3501 55.7893 99.5299 56.3766 101.789 57.0137C104.257 57.6707 106.805 58.3774 108.904 59.7986C116.521 64.7779 110.88 76.7364 102.565 76.7402C100.533 76.7983 98.5328 76.1019 96.6122 75.4552C93.6665 74.5 90.7208 73.5448 87.6456 72.6193C86.5409 72.2611 85.4362 71.9029 84.3205 72.0907C82.4776 72.3773 81.2694 73.9449 80.3202 75.4532C77.7225 79.5812 75.0637 84.3346 74.3366 89.1886C73.7002 93.5463 74.0888 98.2126 73.6911 102.719C73.3858 105.846 72.951 109.003 71.6207 111.821C70.2903 114.64 67.6463 117.08 64.5785 117.376C60.3154 117.809 54.1371 114.946 52.692 110.725C51.356 106.684 52.5308 101.999 53.0969 97.9291C53.5206 95.3185 53.8943 92.7872 54.2384 90.1269C54.5418 87.8834 54.8952 85.5607 53.9533 83.5347C51.4257 77.8643 45.1515 82.9029 42.03 85.0449C38.0908 87.7821 33.5353 89.9131 29.3481 92.1636C21.7415 96.1489 9.37572 90.084 13.2797 80.3578C14.721 76.8346 17.9332 74.1963 21.2434 72.2827C26.2688 69.2287 31.8696 67.1976 36.9246 64.2727C41.4412 61.675 50.7259 55.1991 49.9024 48.9342C49.7655 47.7428 49.1901 46.7198 48.4851 45.7266C46.063 42.002 42.6935 38.9021 39.992 35.4453C38.1546 33.0812 36.467 30.4789 36.1247 27.5004C35.4881 22.3475 40.9241 18.1124 45.5962 17.3812C52.4997 16.2744 55.8896 23.9211 58.8668 28.8772C60.2861 31.2013 61.9921 34.4786 64.5289 35.7313C68.6274 37.8489 68.187 34.1456 68.2129 31.2865C68.2701 27.6729 69.3525 24.3678 71.3304 21.4009C75.0272 15.5265 81.3294 11.5006 88.1885 12.5778Z"
    fill="#D7AE69" />
  <path
    d="M82.4385 36.3226C80.2099 34.9308 79.0198 32.4175 79.3643 29.7561C79.4346 29.4681 79.6642 29.2796 80.003 29.2699C80.2917 29.3396 80.4805 29.5681 80.4897 29.9058C80.136 32.2295 81.3465 34.5343 83.3566 35.5685C85.2872 36.553 87.4197 36.3359 89.1265 34.8572C89.356 34.6687 89.6947 34.6589 89.8835 34.8874C90.0723 35.116 90.0815 35.4537 89.852 35.6422C87.7361 37.4186 85.2149 37.7248 82.8864 36.4918C82.6772 36.4718 82.5976 36.4221 82.4385 36.3226Z"
    fill="#C85440" />
  <path
    d="M92.3169 32.4342C93.4788 33.934 95.8326 32.3074 95.4183 30.5004C94.7376 27.5316 90.4297 30.1497 92.3169 32.4342Z"
    fill="#F3DFCC" />
  <path
    d="M81.3897 24.9449C82.5517 26.4446 84.9056 24.8181 84.4912 23.0111C83.8901 20.092 79.5525 22.581 81.3897 24.9449Z"
    fill="#F3DFCC" />
  <path
    d="M99.5356 74.1924C99.456 74.1427 99.3765 74.093 99.4265 74.0136L97.819 71.4619C97.1938 70.5186 97.4454 69.2384 98.3631 68.4846L100.128 67.265C100.537 66.9675 100.678 66.3919 100.43 65.9054L99.5178 64.0091C99.0221 63.0362 99.3534 61.8057 100.301 61.181L103.272 59.2773C103.501 59.0889 103.869 59.2082 104.058 59.4366C104.247 59.665 104.126 60.0321 103.897 60.2206L100.926 62.1243C100.437 62.3721 100.247 63.0271 100.574 63.5632L101.486 65.4595C101.982 66.4325 101.701 67.5836 100.833 68.258L99.0679 69.4776C98.6091 69.8545 98.4684 70.4301 98.7958 70.9662L100.403 73.518C100.592 73.7464 100.472 74.1136 100.242 74.302C99.9037 74.3117 99.6947 74.2917 99.5356 74.1924Z"
    fill="#F3DFCC" />
  <path
    d="M41.3935 33.3401C41.2344 33.2407 41.1253 33.062 41.1457 32.8536C41.216 32.5658 41.4454 32.3773 41.7839 32.3676L45.3176 32.9158C45.8153 33.0054 46.2742 32.6286 46.4445 32.182L47.0071 29.8796C47.268 28.9368 48.1357 28.2624 49.1811 28.3623L51.5604 28.6318C52.058 28.7215 52.5169 28.3446 52.6076 27.8484L53.0722 24.8213C53.1425 24.5335 53.372 24.3451 53.7105 24.3354C53.9991 24.4051 54.1878 24.6334 54.197 24.9709L53.7324 27.998C53.5806 29.1195 52.5834 29.8236 51.538 29.7236L49.1588 29.4541C48.6611 29.3645 48.2022 29.7414 48.1615 30.1582L47.5989 32.4606C47.3676 33.5325 46.3407 34.1075 45.2954 34.0076L41.7617 33.4595C41.4731 33.3898 41.4731 33.3898 41.3935 33.3401Z"
    fill="#F3DFCC" />
  <path
    d="M30.9023 87.9032C30.7431 87.8038 30.5544 87.5753 30.7043 87.3371L31.3894 83.7827C31.4801 83.2863 31.1822 82.879 30.7343 82.7099L28.4744 82.0729C27.5287 81.8141 26.9032 80.8704 27.005 79.8279L27.2791 77.4548C27.3698 76.9584 26.9923 76.5014 26.4944 76.4117L23.4276 75.8239C23.1389 75.7542 22.9501 75.5257 22.9408 75.1881C23.0112 74.9002 23.2408 74.7116 23.5795 74.7019L26.6463 75.2898C27.7216 75.5188 28.4267 76.5122 28.3248 77.5547L28.0508 79.9278C27.96 80.4243 28.258 80.8315 28.7558 80.9212L31.0157 81.5582C32.0411 81.8666 32.6666 82.8104 32.4351 83.8827L31.75 87.4371C31.6797 87.725 31.4501 87.9135 31.1114 87.9232C30.9819 87.9529 30.9023 87.9032 30.9023 87.9032Z"
    fill="#F3DFCC" />
  <path
    d="M55.84 102.932C55.7604 102.882 55.7603 102.882 55.6807 102.832C55.4919 102.604 55.4828 102.266 55.7123 102.078L58.1372 100.163C59.0054 99.4879 60.2602 99.6079 60.9358 100.472L62.5756 102.271C62.9235 102.599 63.4215 102.688 63.7806 102.47L65.8056 101.19C66.7033 100.645 67.8287 100.794 68.5042 101.659L70.7992 104.53C70.9879 104.759 70.9971 105.096 70.688 105.235C70.4585 105.424 70.1198 105.433 69.981 105.125L67.686 102.254C67.388 101.847 66.8902 101.757 66.4811 102.055L64.4561 103.334C63.5583 103.88 62.5126 103.78 61.837 102.916L60.1973 101.117C59.8993 100.71 59.2717 100.65 58.9422 100.997L56.5174 102.912C56.2583 102.972 55.9991 103.031 55.84 102.932Z"
    fill="#F3DFCC" />
  <path
    d="M84.2163 48.4767C82.9225 47.8899 80.7605 47.9778 78.4189 48.1747C78.5189 48.0159 78.6188 47.8571 78.6392 47.6486C78.7299 47.1521 78.5615 46.7151 78.2135 46.3871C77.9155 45.9797 77.5175 45.7312 77.1991 45.5324C76.244 44.9359 74.7022 43.8623 73.5545 44.8049C73.5545 44.8049 73.5545 44.8049 73.5045 44.8843C72.9215 42.6396 72.2681 40.6828 71.2241 39.6989C69.449 40.5815 66.763 43.4396 66.8685 45.386C68.1217 46.3899 70.8612 46.4415 72.1662 46.4821C71.8459 47.1671 71.9441 47.8922 72.7696 48.5184L72.8492 48.5681C73.5952 49.1446 75.5942 50.725 76.6308 50.4874C76.89 50.428 77.1195 50.2395 77.349 50.0509C77.7452 51.1833 78.7853 53.9348 80.268 54.7501C82.2523 53.8876 83.9831 50.4329 84.2163 48.4767Z"
    fill="#C85440" />
  <path
    d="M69.5382 53.1278C69.2087 53.4751 68.8293 53.9017 68.8182 54.4478C68.857 54.9144 69.0254 55.3514 69.4233 55.5999C69.7712 55.9277 70.219 56.0967 70.6669 56.2658C71.1147 56.4349 71.6125 56.5245 72.0511 56.356C72.2306 56.2469 72.4101 56.1379 72.5101 55.9791C74.3071 54.0046 71.5147 51.0442 69.5382 53.1278Z"
    fill="#F3DFCC" />
  <path
    d="M65.3855 59.3752C65.0561 59.7224 64.6767 60.1491 64.6655 60.6951C64.7044 61.1618 64.8727 61.5987 65.2706 61.8472C65.6184 62.175 66.0663 62.3441 66.5141 62.5131C66.962 62.6822 67.4598 62.7719 67.8984 62.6034C68.0779 62.4943 68.2574 62.3852 68.3573 62.2264C70.2043 60.1726 67.412 57.2122 65.3855 59.3752Z"
    fill="#F3DFCC" />
  <path
    d="M60.8239 65.92C60.4945 66.2673 60.115 66.694 60.1039 67.24C60.1427 67.7066 60.3111 68.1436 60.7089 68.392C61.0568 68.7199 61.5047 68.8889 61.9525 69.058C62.4003 69.2271 62.8982 69.3168 63.3368 69.1483C63.5163 69.0392 63.6958 68.9301 63.7957 68.7713C65.6723 66.8465 62.88 63.8862 60.8239 65.92Z"
    fill="#F3DFCC" />
  <path
    d="M90.0951 61.8823C90.6332 66.3102 96.7141 63.6932 95.0286 60.2076C93.8094 57.5662 89.7622 59.2414 90.0951 61.8823Z"
    fill="#BC8E5D" />
  <path
    d="M53.4029 57.9699C53.941 62.3979 60.0218 59.7809 58.3363 56.2953C57.0671 53.7332 53.07 55.329 53.4029 57.9699Z"
    fill="#BC8E5D" />
  <path
    d="M36.5664 80.498C37.0269 83.9928 41.8715 81.9309 40.5431 79.1107C39.5218 77.0352 36.2723 78.3238 36.5664 80.498Z"
    fill="#BC8E5D" />
  <path
    d="M65.8438 86.8509C66.099 88.5586 68.3917 87.5573 67.7275 86.1472C67.2317 85.174 65.7365 85.7886 65.8438 86.8509Z"
    fill="#BC8E5D" />
  <path
    d="M69.5406 71.808C69.7366 73.2576 71.7204 72.3951 71.1154 71.2431C70.7787 70.3693 69.413 70.9542 69.5406 71.808Z"
    fill="#BC8E5D" />
  <path
    d="M104.733 72.4627C104.929 73.9123 106.913 73.0499 106.308 71.8979C105.842 71.0538 104.606 71.6089 104.733 72.4627Z"
    fill="#BC8E5D" />
  <path
    d="M98.0586 23.3099C98.2546 24.7594 100.238 23.8969 99.6333 22.745C99.2171 21.8215 97.9809 22.3766 98.0586 23.3099Z"
    fill="#BC8E5D" />
  <path
    d="M86.0579 42.5595C86.2539 44.009 88.2377 43.1466 87.6327 41.9946C87.246 41.2002 85.9303 41.7057 86.0579 42.5595Z"
    fill="#BC8E5D" />
  <path
    d="M54.4067 45.4433C54.6027 46.8928 56.5865 46.0304 55.9815 44.8784C55.5948 44.0839 54.2791 44.5894 54.4067 45.4433Z"
    fill="#BC8E5D" />
  <path
    d="M39.8984 27.4271C40.0944 28.8767 42.0783 28.0143 41.4732 26.8623C41.0866 26.0679 39.7708 26.5733 39.8984 27.4271Z"
    fill="#BC8E5D" />
  <path
    d="M76.5769 19.7263C76.6841 20.7886 78.1793 20.174 77.713 19.3299C77.4855 18.6348 76.5584 19.0512 76.5769 19.7263Z"
    fill="#BC8E5D" />
  <path
    d="M77.5712 63.4522C77.9244 65.8847 81.2739 64.4374 80.2822 62.491C79.5385 61.0312 77.4251 61.9233 77.5712 63.4522Z"
    fill="#BC8E5D" />
  <path d="M48.885 68.8515C49.2383 71.2839 52.5877 69.8366 51.596 67.8902C50.8522 66.4304 48.689 67.402 48.885 68.8515Z"
    fill="#BC8E5D" />
  <path
    d="M96.148 36.0429C96.5012 38.4753 99.8506 37.028 98.8589 35.0816C98.1947 33.6715 95.9519 34.5933 96.148 36.0429Z"
    fill="#BC8E5D" />
  <path
    d="M73.3806 33.0924C73.7338 35.5249 77.0833 34.0776 76.0916 32.1312C75.4274 30.7211 73.1845 31.6429 73.3806 33.0924Z"
    fill="#BC8E5D" />
  <path
    d="M55.7644 36.2345C56.1177 38.6669 59.4671 37.2197 58.4754 35.2733C57.8112 33.8632 55.5684 34.785 55.7644 36.2345Z"
    fill="#BC8E5D" />
  <path
    d="M63.7436 50.1714C63.9488 51.9585 66.5007 50.8979 65.757 49.4381C65.2611 48.4649 63.5568 49.0594 63.7436 50.1714Z"
    fill="#BC8E5D" />
  <path
    d="M33.7909 70.8054C33.9961 72.5925 36.5479 71.5318 35.8041 70.072C35.3583 69.0194 33.6836 69.7431 33.7909 70.8054Z"
    fill="#BC8E5D" />
  <path
    d="M58.6234 78.5825C58.8287 80.3696 61.3805 79.309 60.6368 77.8492C60.1909 76.7966 58.4866 77.3911 58.6234 78.5825Z"
    fill="#BC8E5D" />
  <path
    d="M70.2022 97.1996C70.3686 98.52 72.1729 97.7667 71.6474 96.6644C71.3403 95.9197 70.1542 96.3954 70.2022 97.1996Z"
    fill="#BC8E5D" />
  <path
    d="M55.9013 108.823C56.0678 110.143 57.872 109.39 57.3466 108.288C57.0394 107.543 55.8033 108.098 55.9013 108.823Z"
    fill="#BC8E5D" />
  <path
    d="M56.7294 93.7563C56.8958 95.0768 58.7001 94.3235 58.1746 93.2212C57.7879 92.4267 56.6018 92.9025 56.7294 93.7563Z"
    fill="#BC8E5D" />
  <path
    d="M73.2943 80.1215C73.4996 81.9086 76.0515 80.848 75.3077 79.3882C74.7323 78.3653 73.1075 79.0095 73.2943 80.1215Z"
    fill="#BC8E5D" />
  <path
    d="M18.7245 81.1772C19.0778 83.6096 22.4273 82.1623 21.4356 80.2159C20.7714 78.8058 18.5285 79.7276 18.7245 81.1772Z"
    fill="#BC8E5D" />
  <path
    d="M65.9313 109.453C66.2846 111.885 69.6341 110.438 68.6424 108.492C67.9782 107.081 65.7353 108.003 65.9313 109.453Z"
    fill="#BC8E5D" />
  <path
    d="M82.8942 18.1477C82.735 18.0483 82.5962 17.7403 82.6166 17.5317C82.6869 17.2437 82.9961 17.1048 83.2849 17.1746C86.382 17.8918 87.9129 19.5119 87.8629 19.5913C88.0517 19.8199 88.061 20.1576 87.8314 20.3461C87.6019 20.5347 87.263 20.5444 87.0742 20.3158C87.0742 20.3158 85.6526 18.8747 82.9739 18.1975C82.9739 18.1975 82.9738 18.1974 82.8942 18.1477Z"
    fill="#F3DFCC" />
  <path
    d="M98.4975 28.7794C98.4179 28.7297 98.4179 28.7297 98.3383 28.68C96.739 26.464 94.9971 25.708 94.8675 25.7377C94.5787 25.668 94.4899 25.2806 94.5602 24.9926C94.6306 24.7046 95.0193 24.6154 95.3081 24.6851C95.3877 24.7349 97.4185 25.5606 99.2066 28.0051C99.3954 28.2337 99.2751 28.6012 99.0455 28.7897C98.9455 28.9486 98.7363 28.9286 98.4975 28.7794Z"
    fill="#F3DFCC" />
</svg>