<svg width="269" height="209" viewBox="0 0 269 209" fill="none" xmlns="http://www.w3.org/2000/svg">
  <g clip-path="url(#clip0_18_945)">
    <path
      d="M71.6 76C61.8 78.5 50.6 71.4 49 61.5C49.1 62 38.5 58.8 37.5 58.3C33.8 56.4 31 52.5 26.8 51.5C27 59.7 33.2 66.3 30.8 74.9C30.6 75.6 30.4 76.3 30 77.1C33.5 77.2 36.8 79.2 38.5 82.2C40.2 85.2 40.2 89.1 38.5 92.1C42 92.2 45.6 92.3 48.7 93.8C51.8 95.3 54.3 98.7 53.6 102C53.4 103.2 53 104.8 54.1 105.3C54.5 105.5 55 105.3 55.4 105.2C59.7 104.3 81.6 109.2 82.1 113.8C82 112.5 80.9 91.1 84.6 92.6C77.6 89.7 70.4 83.5 71.6 76ZM76.9 104.5C68.7 90.8 51.1 86.7 42.5 73.2C41.8 72.2 43.5 71.1 44.2 72.2C52.7 85.6 70.3 89.6 78.5 103.4C79.1 104.4 77.5 105.5 76.9 104.5Z"
      fill="#40645C" />
    <path
      d="M106.9 135.6C98.9 139.8 87.7 141.5 81.3 134.5C76.5 145.5 61.5 150.1 50.8 143.9C51.4 144.2 40.5 151.4 39.4 151.9C34.8 153.8 29 153.3 25 156.3C33.1 162.6 44 162 50.6 170.9C51.1 171.6 51.7 172.4 52.1 173.3C54.8 170.2 59.1 168.7 63.3 169.5C67.4 170.3 71.2 173.3 72.8 177.3C75.4 174.2 78.1 171 81.9 169.3C85.6 167.6 90.7 168 93.4 171.3C94.4 172.5 95.7 174.1 96.9 173.4C97.4 173.1 97.6 172.6 97.8 172.1C100.1 167.5 120.8 151.2 125.7 154.4C124.2 153.6 102.7 137.7 106.9 135.6ZM109.5 151.9C106.3 151.5 103.2 150.6 99.9 150.2C95.6 149.7 91.5 150.6 87.3 151.8C82.8 153.1 78.2 154.5 73.7 155.7C67.3 157.4 57.7 160.6 51.5 157C50.4 156.4 51.4 154.7 52.4 155.3C59.1 159.3 70.8 154.5 77.7 152.6C82.9 151.2 88.1 149.1 93.4 148.3C99.1 147.5 104.2 149.3 109.8 149.9C111.1 150.1 110.8 152 109.5 151.9Z"
      fill="#40645C" />
    <path
      d="M121.9 49C117.9 57.6 113.7 65.3 103.4 66.8C106.9 68.1 106.3 75.1 105.2 77.4C102.5 82.9 97.8 86 93.8 90.1C98.2 92.3 100.2 95.8 100.1 100.7C100 105.6 97.5 109.8 94.6 113.6C101.4 110.6 107.2 124.7 108.8 129.1C109.3 130.4 108.9 130.2 109.4 130.8C110.5 132 111.9 131.2 112.6 130.1C113.3 129 113.1 127.7 113.1 126.4C113.1 119.4 114.7 113.5 119.2 108C112.1 103.2 123 94.3 127.3 91.1C124.2 91.8 123.1 84.1 123.3 83C124.1 77.6 127.2 74.9 130.6 71.4C126.4 71.8 123.1 53.4 121.9 49ZM116.5 78.1C113.9 91.5 110.7 104.5 112.9 118.1C113.1 119.3 111.2 119.4 111 118.2C108.7 104.4 112 91.3 114.6 77.7C114.8 76.4 116.7 76.8 116.5 78.1Z"
      fill="#40645C" />
    <path
      d="M73.6 103.3C89.9 131.6 115.9 154.1 146.5 166.6C147.9 167.2 148.8 165.1 147.4 164.5C117.2 152.2 91.6 129.9 75.5 102C74.7 100.7 72.8 102.1 73.6 103.3Z"
      fill="#40645C" />
    <path
      d="M108.6 116.2C107.4 129 110.7 141.6 118.2 152.1C119.1 153.3 120.9 151.9 120.1 150.7C113 140.7 109.8 128.7 110.9 116.5C111 115 108.7 114.7 108.6 116.2Z"
      fill="#40645C" />
    <path
      d="M62.2 123.5C67.6 126.1 73.1 128.7 78.9 130.3C84.6 131.9 90.6 132.6 96.5 133.5C97.3 133.6 97.6 132.3 96.7 132.2C91 131.3 85.1 130.6 79.5 129.1C73.6 127.6 68.1 125 62.7 122.3C62 121.9 61.4 123.1 62.2 123.5Z"
      fill="#40645C" />
    <path
      d="M97.6 133.1C92.7 126.6 85.7 122 77.8 120.1C77 119.9 76.8 121.2 77.6 121.4C85.2 123.3 91.9 127.7 96.6 133.9C97 134.6 98.1 133.8 97.6 133.1Z"
      fill="#40645C" />
    <path
      d="M76.1 133.3C82.9 134.5 89.9 134.6 96.8 133.9C97.6 133.8 97.5 132.5 96.7 132.6C89.9 133.4 83.1 133.2 76.3 132C75.5 131.8 75.3 133.1 76.1 133.3Z"
      fill="#40645C" />
    <path
      d="M71.9 116C68.9 118.6 69.3 123.8 72.7 125.6C74.4 126.5 76.4 126.4 78.3 126C79.3 125.7 80.4 125.4 81.1 124.6C82.1 123.5 82.3 122 82.3 120.6C82.3 119 82.1 117.4 81.1 116.2C80.2 115.1 78.8 114.6 77.4 114.5C75.5 114.2 73.4 114.7 71.9 116Z"
      fill="#9F4641" />
    <path
      d="M68.7 128.3C66.1 130.6 66.4 135.1 69.4 136.7C70.9 137.5 72.7 137.4 74.3 137C75.2 136.8 76.1 136.4 76.7 135.8C77.6 134.9 77.7 133.5 77.7 132.3C77.7 130.9 77.5 129.5 76.6 128.4C75.8 127.5 74.6 127 73.3 126.9C71.7 126.8 69.9 127.2 68.7 128.3Z"
      fill="#9F4641" />
    <path
      d="M65.4 117.4C64.8 116.8 64.1 116.3 63.2 116.1C59.2 115.1 56.3 118.8 56.4 122.4C56.4 123.4 56.6 124.6 57.2 125.4C57.7 126 58.4 126.5 59.1 126.8C61.6 127.9 64.6 127.3 66 124.9C67.3 122.7 67.1 119.3 65.4 117.4Z"
      fill="#9F4641" />
    <path
      d="M203.588 32.4895C212.089 33.7617 220.356 39.452 224.111 47.2163C225.504 50.1183 226.821 53.1418 227.226 56.2702C228.591 68.1156 220.48 80.7828 209.557 85.2619C208.341 85.8524 207.081 86.2454 205.91 87.0333C198.782 92.201 210.27 96.5293 214.155 97.6128C217.601 98.5894 220.925 99.49 224.37 100.467C228.135 101.474 232.02 102.558 235.221 104.733C246.841 112.357 238.252 130.641 225.573 130.639C222.475 130.725 219.425 129.658 216.496 128.667C212.003 127.203 207.511 125.739 202.821 124.321C201.137 123.772 199.452 123.223 197.751 123.509C194.941 123.945 193.101 126.342 191.655 128.648C187.698 134.959 183.649 142.226 182.546 149.649C181.58 156.314 182.177 163.451 181.575 170.344C181.113 175.126 180.453 179.953 178.428 184.263C176.402 188.572 172.373 192.302 167.696 192.751C161.196 193.41 151.773 189.024 149.565 182.567C147.524 176.385 149.311 169.22 150.17 162.996C150.813 159.004 151.38 155.133 151.902 151.064C152.363 147.633 152.899 144.081 151.461 140.981C147.601 132.306 138.04 140.006 133.283 143.279C127.279 147.461 120.336 150.716 113.954 154.154C102.36 160.241 83.499 150.953 89.4416 136.081C91.6357 130.694 96.5307 126.662 101.576 123.738C109.235 119.072 117.773 115.972 125.477 111.503C132.361 107.535 146.511 97.6395 145.249 88.0567C145.039 86.2343 144.161 84.6691 143.085 83.1492C139.388 77.45 134.247 72.7055 130.125 67.4157C127.321 63.798 124.745 59.8162 124.22 55.2603C123.244 47.3784 131.528 40.9065 138.651 39.7929C149.176 38.107 154.352 49.8059 158.897 57.3891C161.063 60.9452 163.668 65.9595 167.537 67.8781C173.788 71.121 173.113 65.4565 173.15 61.0836C173.233 55.5567 174.88 50.5028 177.893 45.9671C183.523 36.9861 193.128 30.835 203.588 32.4895Z"
      fill="#D7AE69" />
    <path
      d="M194.867 68.7818C191.469 66.6513 189.652 62.8073 190.174 58.7387C190.281 58.2985 190.631 58.0105 191.147 57.9961C191.587 58.103 191.875 58.4526 191.889 58.9689C191.353 62.5212 193.201 66.0464 196.265 67.6299C199.209 69.1372 202.459 68.8077 205.059 66.549C205.408 66.261 205.924 66.2464 206.212 66.5961C206.5 66.9457 206.515 67.462 206.165 67.75C202.942 70.4634 199.1 70.9287 195.55 69.0409C195.231 69.0101 195.11 68.934 194.867 68.7818Z"
      fill="#C85440" />
    <path
      d="M209.923 62.8357C211.696 65.131 215.283 62.6458 214.649 59.8815C213.608 55.34 207.043 59.3394 209.923 62.8357Z"
      fill="#F3DFCC" />
    <path
      d="M193.267 51.3789C195.04 53.6742 198.627 51.1891 197.993 48.4247C197.073 43.9594 190.463 47.7612 193.267 51.3789Z"
      fill="#F3DFCC" />
    <path
      d="M220.932 126.715C220.811 126.639 220.69 126.562 220.766 126.441L218.311 122.535C217.357 121.092 217.739 119.133 219.138 117.981L221.828 116.117C222.451 115.663 222.665 114.782 222.286 114.038L220.893 111.136C220.136 109.647 220.64 107.765 222.084 106.81L226.613 103.901C226.962 103.613 227.524 103.796 227.812 104.146C228.1 104.495 227.917 105.057 227.567 105.345L223.038 108.254C222.294 108.633 222.004 109.634 222.504 110.455L223.897 113.357C224.654 114.846 224.226 116.607 222.904 117.637L220.214 119.501C219.514 120.077 219.301 120.958 219.8 121.778L222.255 125.684C222.543 126.034 222.36 126.595 222.01 126.883C221.494 126.898 221.175 126.867 220.932 126.715Z"
      fill="#F3DFCC" />
    <path
      d="M132.3 64.2151C132.058 64.0629 131.891 63.7894 131.922 63.4706C132.029 63.0304 132.378 62.7423 132.895 62.7279L138.284 63.5706C139.043 63.7083 139.742 63.1324 140.001 62.4494L140.856 58.9279C141.253 57.486 142.576 56.4554 144.17 56.6094L147.798 57.0245C148.557 57.1622 149.256 56.5862 149.394 55.8272L150.099 51.1971C150.206 50.7569 150.556 50.4689 151.072 50.4545C151.512 50.5614 151.8 50.9109 151.814 51.4272L151.109 56.0573C150.879 57.7728 149.359 58.8487 147.765 58.6946L144.137 58.2796C143.378 58.1419 142.679 58.7179 142.617 59.3555L141.762 62.877C141.41 64.5164 139.845 65.3949 138.251 65.2408L132.862 64.3981C132.422 64.2912 132.422 64.2912 132.3 64.2151Z"
      fill="#F3DFCC" />
    <path
      d="M116.316 147.689C116.073 147.537 115.785 147.187 116.014 146.823L117.054 141.389C117.191 140.63 116.737 140.006 116.054 139.747L112.609 138.771C111.167 138.374 110.212 136.93 110.366 135.336L110.781 131.708C110.919 130.949 110.343 130.249 109.584 130.112L104.909 129.209C104.468 129.102 104.18 128.753 104.166 128.236C104.273 127.796 104.623 127.508 105.139 127.494L109.814 128.396C111.453 128.748 112.529 130.268 112.375 131.862L111.96 135.49C111.823 136.249 112.277 136.872 113.036 137.01L116.482 137.987C118.045 138.459 118.999 139.903 118.648 141.543L117.608 146.977C117.501 147.417 117.151 147.705 116.635 147.72C116.437 147.765 116.316 147.689 116.316 147.689Z"
      fill="#F3DFCC" />
    <path
      d="M154.32 170.67C154.198 170.594 154.198 170.594 154.077 170.518C153.789 170.168 153.774 169.652 154.124 169.364L157.818 166.438C159.14 165.408 161.053 165.593 162.084 166.915L164.585 169.667C165.116 170.169 165.875 170.306 166.422 169.973L169.507 168.019C170.875 167.186 172.59 167.416 173.621 168.738L177.122 173.131C177.41 173.481 177.425 173.997 176.954 174.209C176.604 174.497 176.088 174.512 175.876 174.041L172.375 169.647C171.92 169.024 171.161 168.887 170.538 169.341L167.453 171.296C166.085 172.129 164.491 171.975 163.46 170.652L160.959 167.9C160.504 167.277 159.548 167.185 159.046 167.716L155.352 170.641C154.957 170.731 154.562 170.822 154.32 170.67Z"
      fill="#F3DFCC" />
    <path
      d="M197.574 87.3859C195.601 86.4873 192.306 86.6193 188.737 86.9179C188.89 86.6752 189.042 86.4325 189.073 86.1137C189.21 85.3547 188.953 84.6863 188.422 84.1844C187.968 83.5613 187.361 83.1809 186.875 82.8765C185.419 81.9634 183.068 80.3202 181.32 81.7603C181.32 81.7603 181.32 81.7603 181.244 81.8817C180.353 78.4489 179.355 75.4562 177.763 73.9508C175.058 75.2983 170.967 79.6655 171.13 82.6418C173.041 84.178 177.217 84.2598 179.206 84.3233C178.718 85.3703 178.869 86.479 180.128 87.4374L180.249 87.5135C181.386 88.3957 184.435 90.8143 186.015 90.4521C186.41 90.3615 186.759 90.0736 187.109 89.7856C187.714 91.5174 189.302 95.7255 191.563 96.9737C194.586 95.6569 197.22 90.3766 197.574 87.3859Z"
      fill="#C85440" />
    <path
      d="M175.198 94.4912C174.696 95.0219 174.118 95.6741 174.102 96.5091C174.162 97.2229 174.419 97.8914 175.026 98.2718C175.557 98.7737 176.239 99.0327 176.922 99.2918C177.605 99.5509 178.364 99.6885 179.033 99.4313C179.306 99.2647 179.58 99.0981 179.732 98.8554C182.469 95.8376 178.209 91.3068 175.198 94.4912Z"
      fill="#F3DFCC" />
    <path
      d="M168.868 104.048C168.366 104.579 167.789 105.231 167.772 106.066C167.832 106.78 168.089 107.448 168.696 107.829C169.227 108.331 169.91 108.59 170.592 108.849C171.275 109.108 172.034 109.246 172.703 108.988C172.976 108.822 173.25 108.655 173.402 108.412C176.215 105.273 171.955 100.743 168.868 104.048Z"
      fill="#F3DFCC" />
    <path
      d="M161.915 114.06C161.413 114.591 160.835 115.243 160.819 116.078C160.879 116.791 161.136 117.46 161.743 117.84C162.273 118.342 162.956 118.601 163.639 118.86C164.322 119.119 165.081 119.257 165.75 119C166.023 118.833 166.297 118.667 166.449 118.424C169.308 115.482 165.047 110.951 161.915 114.06Z"
      fill="#F3DFCC" />
    <path
      d="M206.534 107.881C207.36 114.655 216.628 110.659 214.054 105.326C212.192 101.284 206.024 103.842 206.534 107.881Z"
      fill="#BC8E5D" />
    <path
      d="M150.605 101.896C151.431 108.669 160.698 104.674 158.125 99.3407C156.187 95.4205 150.094 97.8566 150.605 101.896Z"
      fill="#BC8E5D" />
    <path
      d="M124.941 136.359C125.648 141.704 133.031 138.556 131.003 134.241C129.443 131.066 124.491 133.033 124.941 136.359Z"
      fill="#BC8E5D" />
    <path
      d="M169.569 146.078C169.96 148.69 173.454 147.161 172.44 145.004C171.683 143.515 169.404 144.453 169.569 146.078Z"
      fill="#BC8E5D" />
    <path
      d="M175.204 123.067C175.504 125.284 178.528 123.968 177.604 122.205C177.089 120.868 175.008 121.761 175.204 123.067Z"
      fill="#BC8E5D" />
    <path
      d="M228.847 124.068C229.148 126.286 232.171 124.969 231.247 123.206C230.536 121.915 228.651 122.762 228.847 124.068Z"
      fill="#BC8E5D" />
    <path
      d="M218.673 48.8787C218.974 51.096 221.997 49.7792 221.073 48.0165C220.438 46.6036 218.554 47.4513 218.673 48.8787Z"
      fill="#BC8E5D" />
    <path
      d="M200.381 78.325C200.681 80.5422 203.705 79.2254 202.781 77.4628C202.19 76.2472 200.185 77.0189 200.381 78.325Z"
      fill="#BC8E5D" />
    <path
      d="M152.135 82.7366C152.436 84.9538 155.459 83.637 154.535 81.8744C153.945 80.6589 151.94 81.4305 152.135 82.7366Z"
      fill="#BC8E5D" />
    <path
      d="M130.02 55.1769C130.321 57.3942 133.345 56.0776 132.421 54.3149C131.83 53.0994 129.825 53.8708 130.02 55.1769Z"
      fill="#BC8E5D" />
    <path
      d="M185.929 43.3972C186.094 45.0221 188.372 44.0838 187.661 42.7922C187.313 41.7288 185.9 42.3646 185.929 43.3972Z"
      fill="#BC8E5D" />
    <path
      d="M187.444 110.284C187.986 114.005 193.091 111.795 191.577 108.817C190.441 106.584 187.22 107.946 187.444 110.284Z"
      fill="#BC8E5D" />
    <path
      d="M143.719 118.544C144.26 122.264 149.365 120.055 147.851 117.077C146.715 114.843 143.418 116.326 143.719 118.544Z"
      fill="#BC8E5D" />
    <path
      d="M215.761 68.3558C216.302 72.0766 221.407 69.8669 219.893 66.8887C218.878 64.7312 215.46 66.1385 215.761 68.3558Z"
      fill="#BC8E5D" />
    <path
      d="M181.057 63.8428C181.598 67.5637 186.703 65.354 185.189 62.3759C184.174 60.2183 180.756 61.6256 181.057 63.8428Z"
      fill="#BC8E5D" />
    <path
      d="M154.205 68.649C154.746 72.3698 159.851 70.1602 158.337 67.182C157.322 65.0245 153.904 66.4317 154.205 68.649Z"
      fill="#BC8E5D" />
    <path
      d="M166.367 89.9689C166.682 92.7024 170.572 91.0832 169.436 88.8496C168.679 87.3605 166.081 88.2679 166.367 89.9689Z"
      fill="#BC8E5D" />
    <path
      d="M120.711 121.533C121.026 124.267 124.915 122.647 123.779 120.414C123.098 118.803 120.546 119.908 120.711 121.533Z"
      fill="#BC8E5D" />
    <path
      d="M158.563 133.43C158.878 136.163 162.767 134.544 161.631 132.31C160.95 130.7 158.353 131.607 158.563 133.43Z"
      fill="#BC8E5D" />
    <path
      d="M176.212 161.909C176.467 163.929 179.217 162.779 178.415 161.092C177.946 159.953 176.138 160.679 176.212 161.909Z"
      fill="#BC8E5D" />
    <path
      d="M154.413 179.689C154.669 181.709 157.419 180.559 156.616 178.872C156.147 177.733 154.263 178.58 154.413 179.689Z"
      fill="#BC8E5D" />
    <path
      d="M155.676 156.642C155.931 158.661 158.681 157.511 157.879 155.825C157.288 154.609 155.48 155.335 155.676 156.642Z"
      fill="#BC8E5D" />
    <path
      d="M180.925 135.784C181.24 138.518 185.13 136.898 183.994 134.665C183.116 133.1 180.639 134.083 180.925 135.784Z"
      fill="#BC8E5D" />
    <path
      d="M97.7456 137.398C98.287 141.119 103.392 138.909 101.878 135.931C100.863 133.774 97.445 135.181 97.7456 137.398Z"
      fill="#BC8E5D" />
    <path
      d="M169.702 180.652C170.244 184.373 175.348 182.163 173.834 179.185C172.82 177.027 169.402 178.435 169.702 180.652Z"
      fill="#BC8E5D" />
    <path
      d="M195.559 40.981C195.316 40.8289 195.104 40.3578 195.135 40.039C195.242 39.5988 195.713 39.3869 196.153 39.4938C200.874 40.5937 203.209 43.072 203.133 43.1934C203.421 43.543 203.435 44.0592 203.085 44.3472C202.736 44.6352 202.219 44.6497 201.931 44.3C201.931 44.3 199.763 42.0954 195.68 41.0572C195.68 41.0572 195.68 41.0571 195.559 40.981Z"
      fill="#F3DFCC" />
    <path
      d="M219.344 57.2462C219.223 57.1701 219.223 57.1701 219.101 57.094C216.662 53.7046 214.006 52.5469 213.809 52.5922C213.368 52.4853 213.233 51.8929 213.339 51.4527C213.446 51.0125 214.039 50.8766 214.479 50.9836C214.6 51.0596 217.696 52.3243 220.424 56.0633C220.712 56.413 220.529 56.9746 220.179 57.2626C220.027 57.5053 219.708 57.4745 219.344 57.2462Z"
      fill="#F3DFCC" />
  </g>
  <defs>
    <clipPath id="clip0_18_945">
      <rect width="269" height="209" fill="white" />
    </clipPath>
  </defs>
</svg>