<svg width="50" height="41" viewBox="0 0 50 41" fill="none" xmlns="http://www.w3.org/2000/svg">
  <path
    d="M5.80444 22.7251C7.69977 23.8574 9.75304 23.9706 11.6484 23.4044C11.9643 23.2912 12.2012 23.178 12.5171 23.0648C11.9643 24.0838 11.5694 25.3292 11.3325 26.4615C11.0166 27.7069 10.8586 29.0656 10.9376 30.4243C11.0166 31.783 11.2535 33.0284 11.5694 34.1607C11.8853 35.1797 12.2801 35.9722 12.8329 36.7648C13.3857 37.5574 13.9385 38.1235 14.4914 38.5764C14.6493 38.6896 19.0717 41.7466 18.9138 40.1615C18.8348 39.5954 18.361 38.9161 18.0451 38.5764C17.6502 38.0103 17.3343 37.4441 16.9395 36.7648C16.7026 36.4251 16.5446 35.9722 16.3867 35.6326C16.3077 35.4061 16.2287 35.1797 16.0708 34.9532C16.0708 34.84 15.9129 34.7268 15.9129 34.6136C15.9129 34.6136 15.9918 34.3871 15.9918 34.5003C15.9918 34.5003 16.4657 34.5003 16.5446 34.5003C16.8605 34.5003 17.1764 34.6135 17.4133 34.5003C17.9661 34.5003 18.5189 34.2739 18.9928 33.9342C19.3086 33.7078 19.6245 33.5946 19.8614 33.2549C20.0194 33.0284 20.1773 32.9152 19.9404 32.802C19.7035 32.6887 19.3876 32.6888 19.1507 32.6888C18.8348 32.5756 18.5189 32.4623 18.203 32.2359C17.6502 31.8962 17.0974 31.33 16.6236 30.8772C15.8339 30.0846 15.1231 29.0656 14.8862 27.7069C14.6493 26.3482 14.4914 24.9896 14.7283 23.6309C14.8072 23.4044 14.8072 23.178 14.8862 22.8383C15.2021 21.7061 15.9129 20.8003 16.6236 20.1209C17.6502 19.2151 18.5979 18.0829 19.4666 16.8375C21.6778 13.7804 23.3362 10.1573 24.4418 5.85479C24.5998 5.4019 24.3629 5.17546 24.1259 5.51513C22.7044 8.57217 21.2829 11.9688 19.3086 15.0259C17.3343 18.0829 14.8072 20.5738 12.2801 21.4796C10.5428 22.159 8.7264 22.2722 6.91005 21.7061C5.88341 21.2532 5.01472 20.2342 4.61986 18.7623C4.38294 17.9697 4.225 17.1772 4.06706 16.2714C3.90911 15.3656 3.90911 14.4598 3.98809 13.4408C4.14603 12.535 4.38294 11.6292 4.85678 10.9498C5.17266 10.3837 5.56753 9.93082 5.96239 9.59115C6.35725 9.13826 7.38388 8.79863 8.33154 8.57218C8.41052 8.57218 8.48948 8.57218 8.64743 8.57218C8.64743 8.57218 8.7264 8.57214 8.7264 8.45892C8.7264 8.34569 8.64743 8.34568 8.56846 8.23246C8.48948 8.11923 8.41051 8.00602 8.25257 7.8928L8.01566 7.55314C7.69977 7.21347 7.38388 6.76055 6.98902 6.5341C6.59416 6.19443 6.12033 5.96801 5.72547 5.85479C5.40958 5.74157 5.25163 5.74159 5.01472 5.74159C4.93575 5.40192 5.17266 4.72253 5.40958 3.70352C5.64649 2.79773 5.88341 1.89195 6.1993 1.09939C6.27827 0.75972 6.12032 0.306854 5.88341 0.420077C5.88341 0.420077 5.25164 0.533259 4.38295 0.87293C3.59323 1.2126 2.64556 1.89196 2.17173 2.79774C1.06612 4.38287 0.355374 6.42091 0.118458 8.68538C-0.19743 11.4027 0.118456 14.2333 1.06612 16.611C2.32967 19.4416 3.90911 21.5929 5.80444 22.7251Z"
    fill="#65B28E" />
  <path
    d="M25.0736 35.6327C26.4951 32.5756 27.9166 29.179 29.8909 26.1219C31.8652 23.0649 34.3923 20.574 36.9194 19.6682C38.6568 18.9888 40.4731 18.8756 42.2895 19.4417C43.3161 19.8946 44.1848 20.9136 44.5797 22.3855C44.8166 23.1781 44.9745 23.9706 45.1325 24.8764C45.2904 25.7822 45.2904 26.688 45.2114 27.707C45.0535 28.6128 44.8166 29.5186 44.3428 30.198C44.0269 30.7641 43.632 31.217 43.2372 31.5566C42.8423 32.0095 41.8157 32.3492 40.868 32.5756C40.789 32.5756 40.7101 32.5756 40.5521 32.5756C40.5521 32.5756 40.4731 32.5757 40.4731 32.6889C40.4731 32.8021 40.5521 32.8021 40.6311 32.9153C40.71 33.0286 40.789 33.1418 40.947 33.255L41.1839 33.5947C41.4998 33.9343 41.8157 34.3872 42.2105 34.6137C42.6054 34.9534 43.0792 35.1798 43.4741 35.293C43.79 35.4062 43.9479 35.4062 44.1848 35.4062C44.2638 35.7459 44.0269 36.4253 43.79 37.4443C43.553 38.3501 43.3161 39.2558 43.0002 40.0484C42.9213 40.3881 43.0792 40.8409 43.3161 40.7277C43.3161 40.7277 43.9479 40.6145 44.8166 40.2749C47.1857 39.1426 48.6862 35.8592 49.16 32.3492C49.4759 29.6319 49.16 26.8013 48.2124 24.4236C47.2647 21.8194 45.6853 19.7814 43.79 18.6491C41.8946 17.5169 39.8414 17.4037 37.946 17.9698C37.6301 18.0831 37.3932 18.1963 37.0773 18.3095C37.6301 17.2905 38.025 16.045 38.2619 14.9128C38.5778 13.6673 38.7357 12.3086 38.6568 10.95C38.5778 9.59128 38.3409 8.34583 38.025 7.2136C37.7091 6.19458 37.3143 5.40203 36.7615 4.60947C36.2086 3.81691 35.6558 3.25075 35.103 2.79785C34.9451 2.68463 30.5227 -0.372364 30.6806 1.21276C30.7596 1.77888 31.2334 2.45818 31.5493 2.79785C31.9442 3.36397 32.2601 3.93013 32.6549 4.60947C32.8918 4.94914 33.0498 5.40203 33.2077 5.7417C33.2867 5.96815 33.3657 6.19457 33.5236 6.42102C33.5236 6.53424 33.6815 6.64745 33.6815 6.76067C33.6815 6.76067 33.6026 6.98716 33.6026 6.87394C33.6026 6.87394 33.1287 6.87394 33.0498 6.87394C32.7339 6.87394 32.418 6.76072 32.1811 6.87394C31.6283 6.87394 31.0755 7.10039 30.6016 7.44006C30.2857 7.6665 29.9699 7.7797 29.7329 8.11937C29.575 8.34582 29.4171 8.45907 29.654 8.57229C29.8909 8.68552 30.2068 8.68549 30.4437 8.68549C30.7596 8.79871 31.0755 8.91196 31.3914 9.13841C31.9442 9.47808 32.497 10.0441 32.9708 10.497C33.7605 11.2896 34.4713 12.3087 34.7082 13.6673C34.9451 15.026 35.103 16.3847 34.8661 17.7434C34.7871 17.9698 34.7871 18.1963 34.7082 18.5359C34.3923 19.6682 33.6815 20.5739 32.9708 21.2533C31.9442 22.1591 30.9965 23.2913 30.1278 24.5368C27.9166 27.5938 26.2582 31.217 25.1526 35.5195C24.6787 35.7459 24.9157 35.9723 25.0736 35.6327Z"
    fill="#65B28E" />
</svg>