<svg width="282" height="63" viewBox="0 0 282 63" fill="none" xmlns="http://www.w3.org/2000/svg">
<path d="M96.1979 24.434C96.1522 24.205 95.8777 24.0217 95.649 24.0217C85.2194 24.3424 74.7897 24.6173 64.3601 24.938C64.2229 24.938 64.1314 24.9839 64.0856 25.0297C64.0856 25.0297 64.0856 25.0297 64.0399 25.0297C63.9027 25.1213 63.8112 25.2587 63.8112 25.4878C63.8569 33.5055 64.2686 41.4314 65.2292 49.4033C65.275 49.724 65.458 49.953 65.7782 49.953C76.0248 50.7319 86.2715 50.3654 96.4266 48.8535C96.7011 48.8077 96.8383 48.5328 96.8383 48.3037C97.3873 40.3777 97.8904 32.3142 96.1979 24.434Z" fill="#F3EBAC"/>
<path d="M76.8482 23.9758V50.8234H84.396L83.1609 23.5177C83.1151 22.8304 82.5205 22.3265 81.8343 22.3723L77.9461 22.7388C77.3057 22.8304 76.8482 23.3802 76.8482 23.9758Z" fill="#B9464B"/>
<path d="M62.8506 34.4676V39.4614L97.9362 38.6826V33.5513L62.8506 34.4676Z" fill="#B9464B"/>
<path d="M89.1076 13.6675C87.0491 13.1177 84.9449 13.8966 83.3438 15.2252C82.429 16.0041 81.6513 16.9204 81.0109 17.8825C80.5535 18.5697 80.1418 19.3028 79.7301 20.0358C79.6386 20.2649 79.4556 20.6314 79.2726 20.9979C78.5865 19.8525 77.5344 18.7988 76.6652 18.1116C74.5153 16.4622 71.7706 15.3626 69.026 15.5001C66.8303 15.6375 64.6346 16.8746 64.3601 19.2111C64.0399 22.4182 67.4707 23.1512 69.9409 23.701C71.5877 24.0675 73.3259 24.2966 75.0184 24.3882C76.3908 24.4799 78.0833 24.6631 79.4099 24.2508C82.6577 23.7926 86.2257 23.2887 89.2906 22.2349C91.3033 21.5477 92.8586 19.99 92.7671 17.745C92.7214 15.7292 91.0288 14.1715 89.1076 13.6675ZM74.0121 21.6851C72.2738 21.5477 70.3068 21.2728 68.66 20.6772C67.9281 20.4023 66.6016 20.0816 67.1047 19.0279C67.5164 18.2032 68.7515 18.1116 69.5292 18.1116C70.8557 18.0657 72.1823 18.4323 73.4174 18.8904C74.744 19.3944 75.9791 20.2191 77.0312 21.1812C77.3056 21.4102 77.5344 21.6851 77.8088 21.96C76.6195 22.0975 74.8355 21.7768 74.0121 21.6851ZM89.565 20.0358C88.1012 20.9521 85.8598 21.0437 84.213 21.4102C83.3438 21.5935 82.5205 21.7309 81.6513 21.9142C82.3832 20.4481 83.1151 18.8904 84.2587 17.6534C85.3566 16.4622 86.8204 15.4543 88.5129 15.8208C90.6171 16.2331 91.715 18.7072 89.565 20.0358Z" fill="#B9464B"/>
<path d="M200.355 21.83C201.159 23.0061 201.844 24.2732 202.502 25.5795C203.044 26.6352 203.587 27.6909 203.971 28.8109C204.85 27.1763 205.808 25.5951 206.843 24.067C206.792 23.9746 206.779 23.9088 206.859 23.7912C207.812 21.1195 208.463 18.4715 208.682 15.7014C208.699 15.2549 209.395 15.1559 209.352 15.6416C209.254 17.9791 208.698 20.2339 208.037 22.4746C209.866 20.1126 211.879 17.818 213.76 15.5484C214.065 15.1832 214.56 15.6342 214.282 15.9602C212.214 18.504 209.964 20.9805 207.988 23.6434C208.632 23.4519 208.936 23.2575 209.671 23.185C210.538 23.0875 212.636 23.1976 213.206 22.4406C213.59 21.9578 214.06 22.2772 213.86 22.6565C213.446 23.5199 212.148 23.4955 211.32 23.6197C209.823 23.8038 208.497 23.9894 207.192 24.8188C207.165 24.858 207.099 24.8706 207.034 24.8831C205.573 27.0381 204.413 29.3402 203.175 31.589C204.504 31.0619 205.779 30.784 207.223 30.6783C208.063 30.6199 208.942 30.5881 209.756 30.5688C210.202 30.5859 210.793 30.4727 211.145 30.7123C211.563 30.9392 211.218 31.4486 210.812 31.2874C210.446 31.1529 209.816 31.2394 209.448 31.2756C208.674 31.3214 207.992 31.3155 207.217 31.3613C205.472 31.4907 204.012 31.8722 202.497 32.6735C200.967 35.3534 199.397 38.0066 198.102 40.8462C198.115 40.9119 198.088 40.9511 198.061 40.9903C197.593 42.1029 197.23 43.2296 196.801 44.3688C197.842 43.7604 199.106 43.2458 200.211 42.7956C202.107 42.0238 203.922 41.3696 205.765 40.6761C206.212 40.5223 206.496 41.116 206.048 41.2698C204.377 41.9647 202.772 42.4762 201.035 43.1837C199.482 43.7877 197.615 44.3495 196.436 45.6662C195.611 48.8251 195.073 52.0653 194.142 55.2101C194.021 55.6426 193.34 55.4659 193.461 55.0334C194.273 51.9795 194.902 48.8583 195.648 45.817C195.623 45.6854 195.61 45.6196 195.69 45.5021C195.716 45.4629 195.743 45.4237 195.77 45.3845C196.294 43.852 196.778 42.2929 197.407 40.7744C197.118 39.2612 196.709 37.8388 196.289 36.3507C195.868 34.8625 195.513 33.3618 194.749 32.0415C194.503 31.6452 195.083 31.2956 195.329 31.6918C196.158 32.9996 196.539 34.6319 196.933 36.1592C197.291 37.3184 197.61 38.4509 197.875 39.6618C199.037 37.189 200.433 34.8758 201.79 32.536C201.804 32.4311 201.857 32.3527 201.976 32.2618C202.455 31.3857 202.974 30.5363 203.414 29.6337C203.375 29.6071 203.362 29.5413 203.349 29.4755C202.954 28.1189 202.269 26.8518 201.662 25.6379C201.016 24.3974 200.395 23.2885 199.67 22.1656C199.529 21.7834 200.148 21.4603 200.355 21.83Z" fill="#F3EBAC"/>
<path d="M213.235 12.7828C211.767 14.1887 212.525 16.1919 214.132 16.9414C215.139 17.3967 216.491 17.172 217.169 16.0877C219.016 13.1088 215.76 10.322 213.235 12.7828Z" fill="#B9464B"/>
<path d="M212.715 21.6453C211.338 23.1702 212.215 25.0825 213.809 25.7662C214.842 26.1824 216.143 25.8653 216.743 24.7277C218.446 21.7082 215.11 19.039 212.715 21.6453Z" fill="#B9464B"/>
<path d="M208.088 13.462C206.858 14.6861 207.421 16.3855 208.794 16.9753C209.617 17.3634 210.799 17.1372 211.41 16.2361C212.978 13.754 210.177 11.3916 208.088 13.462Z" fill="#B9464B"/>
<path d="M197.741 19.5361C196.587 21.1549 197.648 22.9637 199.258 23.3717C200.292 23.6171 201.541 23.2076 201.997 22.0293C203.307 18.9144 199.731 16.7686 197.741 19.5361Z" fill="#B9464B"/>
<path d="M210.168 29.7027C208.934 31.439 210.086 33.3668 211.814 33.8546C212.926 34.1533 214.229 33.6654 214.776 32.4354C216.102 29.0448 212.291 26.7394 210.168 29.7027Z" fill="#B9464B"/>
<path d="M204.997 39.5243C204.064 41.4077 205.638 43.0501 207.407 43.2231C208.547 43.3118 209.825 42.6924 210.124 41.4077C210.913 37.8811 206.597 36.32 204.997 39.5243Z" fill="#B9464B"/>
<path d="M193.036 28.4159C191.737 30.1648 193.124 32.2522 194.917 32.7275C196.068 33.0527 197.476 32.5789 198.011 31.2831C199.402 27.88 195.278 25.3617 193.036 28.4159Z" fill="#B9464B"/>
<path d="M134.71 49.1155C134.71 46.9941 135.116 45.0533 135.882 43.248C136.378 42.0745 137.054 41.0364 137.82 40.0434L139.307 38.1477C142.101 34.5821 141.74 29.3916 138.316 26.4579C134.665 23.2984 129.212 23.8852 126.283 27.6314L124.661 29.7076C123.895 30.7005 123.039 31.6032 122.047 32.3705C120.47 33.544 118.667 34.4467 116.594 34.9432C116.279 35.0334 115.963 35.0786 115.648 35.1237L114.251 36.9291C113.665 37.6513 117.496 41.578 122.768 45.7304C128.041 49.8828 132.773 52.636 133.358 51.9138L134.755 50.1084C134.755 49.7473 134.71 49.4314 134.71 49.1155Z" fill="#F3EBAC"/>
<path d="M158.73 42.0293C157.738 40.6301 157.108 39.0955 156.747 37.561C156.522 36.568 156.477 35.5299 156.567 34.4918L156.657 32.5059C156.837 28.8048 154.223 25.51 150.528 25.1489C146.607 24.7427 143.228 27.7216 143.002 31.6032L142.867 33.7697C142.822 34.8078 142.687 35.8007 142.371 36.7937C141.876 38.3283 141.064 39.7726 139.938 41.0815C139.758 41.262 139.577 41.4877 139.397 41.6682L139.307 43.5188C139.262 44.286 143.678 45.0985 149.131 45.4144C154.584 45.7303 159.09 45.3241 159.09 44.602L159.18 42.7515C159.045 42.4355 158.865 42.2098 158.73 42.0293Z" fill="#F3EBAC"/>
<path d="M145.571 20.8161C145.03 22.3055 146.382 23.7499 147.914 23.3436C150.573 22.6215 153.052 21.3126 155.08 19.4169L155.44 19.101C156.567 18.0629 156.612 16.3478 155.575 15.2194L154.268 13.7751C153.232 12.6467 151.519 12.6016 150.393 13.6397L150.032 13.9556C148.049 15.8513 146.517 18.1983 145.571 20.8161Z" fill="#B9464B"/>
<path d="M137.369 23.2534C138.901 23.5242 140.118 21.9445 139.487 20.5002C138.361 17.9727 136.648 15.7611 134.44 14.0459L134.079 13.7751C132.908 12.8273 131.195 13.053 130.249 14.2716L129.032 15.8062C128.086 16.9797 128.311 18.6948 129.528 19.6426L129.888 19.9134C132.052 21.6286 134.62 22.8021 137.369 23.2534Z" fill="#B9464B"/>
<path d="M143.273 20.2295L141.74 20.1843C141.11 20.1843 140.569 20.6808 140.569 21.3127L140.479 25.5554C140.479 26.1872 140.974 26.7289 141.605 26.7289L143.137 26.774C143.768 26.774 144.309 26.2775 144.309 25.6456L144.399 21.403C144.399 20.7711 143.904 20.2746 143.273 20.2295Z" fill="#B9464B"/>
<path d="M131.511 22.7569C131.511 22.7569 127.455 18.9205 120.019 22.0348C119.659 22.1702 119.614 22.6667 119.929 22.8923L122.768 24.8331L122.498 27.5863C122.453 28.0377 122.994 28.3085 123.309 27.9926C124.796 26.5482 127.861 23.9304 131.511 22.7569Z" fill="#B9464B"/>
<path d="M151.745 23.4338C151.745 23.4338 155.891 19.7328 163.236 23.0276C163.597 23.2082 163.642 23.6595 163.326 23.8852L160.442 25.7357L160.668 28.4889C160.713 28.9403 160.172 29.2111 159.856 28.8951C158.324 27.4057 155.305 24.7427 151.745 23.4338Z" fill="#B9464B"/>
<path d="M36.027 40.8733C37.1569 40.9924 38.3462 41.1115 39.4761 41.2902C41.3196 41.588 43.0441 42.0049 44.8876 42.1836C46.1959 44.2086 47.6231 46.2336 45.5417 48.1991C43.5793 50.0455 41.9142 48.9138 40.5465 47.6631C40.1302 47.3057 39.7734 46.7697 39.4166 46.1741C38.2272 44.4468 37.1569 42.6601 36.027 40.8733Z" fill="#B9464B"/>
<path d="M29.1288 30.3909C30.3181 30.51 31.5075 30.6887 32.6374 30.8078C34.3619 31.046 36.2648 30.9865 37.9894 31.2843C39.4761 33.6071 40.9627 35.9299 42.3305 38.1932C41.5574 38.0145 40.7843 37.8954 40.0113 37.7763C37.8704 37.4785 35.6702 37.2998 33.4699 37.002C33.0536 36.3468 32.5779 35.6917 32.1616 35.0365C31.2101 33.488 30.1397 31.9394 29.1288 30.3909Z" fill="#B9464B"/>
<path d="M23.5983 22.9459C24.193 22.3503 24.9066 21.8143 25.7986 21.4569C27.4042 20.8018 29.0693 20.8018 30.7344 20.9209C32.2805 22.8864 33.8862 25.1497 35.4918 27.4725C34.9566 27.4129 34.4808 27.4129 33.9456 27.3534C31.5075 27.0556 29.0693 26.7577 26.6312 26.5195C26.0365 25.507 25.3229 24.554 24.5498 23.6607C24.2525 23.4224 23.8957 23.1842 23.5983 22.9459Z" fill="#B9464B"/>
<path d="M17.1164 20.1467C17.5921 18.8364 18.4247 17.6452 19.4356 16.6327C22.7063 15.501 24.9661 15.501 27.5231 17.5261C26.5122 17.6452 25.5013 17.943 24.4903 18.4194C22.1711 19.4915 20.625 21.0996 19.3762 23.0055C18.3058 23.6607 17.4137 24.3754 16.7596 25.2688C16.2244 23.7202 16.6407 21.6357 17.1164 20.1467Z" fill="#B9464B"/>
<path d="M9.20729 29.4976C9.68302 25.3284 11.1697 21.3379 14.9162 18.7769C14.6188 19.3725 14.4404 19.9681 14.262 20.6232C13.6079 23.3034 13.4295 26.6387 15.3919 28.4255C15.4514 29.1998 16.165 29.9145 15.9866 30.8079C15.6298 32.5947 13.6673 34.0837 11.8833 33.6667C10.0993 33.1903 9.02889 31.1652 9.20729 29.4976Z" fill="#B9464B"/>
<path d="M259.343 22.982C258.843 22.1627 258.071 21.5256 257.162 21.1615C256.707 20.9794 256.298 21.0249 255.889 20.9339C255.48 20.8429 255.071 20.6153 254.662 20.5243C252.936 20.2057 250.982 20.8429 249.709 21.9807C248.255 23.3005 247.437 25.4396 247.619 27.5332C247.664 28.3069 247.846 28.9441 248.164 29.4902C248.573 30.2184 249.3 30.9011 250.255 31.4018C251.3 31.9479 252.481 32.221 253.708 32.221C255.799 32.221 257.889 31.4018 259.025 29.5357C259.388 28.9896 259.661 28.3069 259.843 27.5332C260.297 25.8948 260.116 24.2563 259.343 22.982Z" fill="#F3EBAC"/>
<path d="M262.479 33.8593C260.797 32.2209 258.162 31.4017 256.162 31.8568C255.708 31.9478 255.208 32.0388 254.572 32.0388C254.254 32.0388 253.89 32.0844 253.572 32.0844C252.254 32.1299 250.891 32.1754 249.528 32.7215C247.528 33.4952 245.847 34.8151 244.62 36.4081C242.802 38.8657 242.075 42.0061 242.575 45.0099C243.075 47.8772 244.665 50.2894 247.074 51.8368C248.164 52.5195 249.437 53.0201 251.027 53.2932C251.845 53.4297 252.709 53.5208 253.526 53.5208C256.435 53.5208 259.161 52.656 261.342 51.0176C263.796 49.1516 265.341 45.9202 265.523 42.3247C265.659 38.9113 264.569 35.8164 262.479 33.8593Z" fill="#F3EBAC"/>
<path d="M259.479 23.9833C256.117 23.3006 252.708 22.8909 249.3 22.5724C248.664 22.5268 247.21 22.4814 246.983 21.7076C246.801 21.116 247.346 20.3878 247.892 20.1602C248.664 19.8416 249.528 19.9782 250.346 20.0237C250.709 20.0237 251.118 20.0237 251.345 19.7506C251.482 19.5685 251.527 19.341 251.527 19.1134C251.754 17.0198 252.027 14.9263 252.254 12.8327C252.3 12.6506 252.3 12.4231 252.436 12.2865C252.572 12.1955 252.754 12.15 252.936 12.15C255.935 11.9224 258.979 12.0135 261.979 12.5596C262.251 12.6051 262.524 12.6961 262.66 12.9237C262.751 13.1057 262.706 13.2878 262.66 13.4699C262.115 16.0186 261.297 18.5217 260.206 20.8884C260.07 21.1615 259.979 21.5711 260.206 21.7531C260.388 21.8897 260.57 21.7986 260.797 21.7986C261.706 21.7986 262.251 23.1185 261.615 23.7557C261.115 24.2563 260.252 24.1198 259.479 23.9833Z" fill="#3C5B56"/>
<path d="M256.344 34.1327C257.753 34.1783 259.207 34.1327 260.343 33.3135C260.933 32.9039 261.388 32.1302 261.07 31.493C260.979 31.311 260.797 31.1289 260.706 30.9469C260.525 30.7193 260.388 30.4462 260.161 30.2186C259.434 29.536 258.252 29.8546 257.298 30.1731C255.799 30.6738 254.254 30.9469 252.663 31.0834C251.891 31.1289 250.118 30.8103 249.573 31.493C249.3 31.8571 249.3 32.6763 249.528 33.086C249.937 33.7686 250.891 33.6776 251.663 33.7686C253.208 33.9507 254.753 34.0872 256.344 34.1327Z" fill="#B9464B"/>
<path d="M257.389 44.0548C257.48 44.2823 257.662 44.6009 257.934 44.6009C258.252 44.6009 258.48 44.2368 258.752 44.0093C259.07 43.7817 259.525 43.8272 259.934 43.9637C260.297 44.1003 260.706 44.3278 261.115 44.3278C261.524 44.3278 261.979 44.1003 261.979 43.6907C261.979 43.19 261.388 42.917 260.979 42.6439C260.252 42.1433 259.934 41.2785 259.707 40.4593C259.025 38.0926 258.571 35.5894 257.162 33.5869C257.071 33.4503 256.935 33.3138 256.798 33.2228C256.617 33.1318 256.389 33.2228 256.208 33.2683C255.753 33.4048 255.344 33.5414 254.89 33.7234C255.39 35.4529 256.071 37.0003 256.344 38.8208C256.571 40.5958 256.707 42.4618 257.389 44.0548Z" fill="#B9464B"/>
<path d="M260.888 39.6854C260.933 39.913 261.07 40.2316 261.297 40.2316C261.388 40.2316 261.479 40.1861 261.57 40.1406C262.16 39.822 262.66 39.3668 263.069 38.8207C263.16 38.7297 263.206 38.5931 263.206 38.4566C263.206 38.2745 263.069 38.1835 262.933 38.047C261.661 37.0002 260.525 35.7714 259.525 34.4515C258.979 33.7688 258.434 32.631 257.571 33.2226C256.617 33.9053 257.48 34.5425 258.025 35.1342C259.207 36.4996 260.434 37.9104 260.888 39.6854Z" fill="#B9464B"/>
<path d="M243.847 28.944C243.711 29.035 243.529 29.1715 243.575 29.3536C243.575 29.4901 243.666 29.5811 243.756 29.6266C244.211 29.8997 244.802 29.8087 245.301 29.7177C246.846 29.3991 248.437 29.035 249.982 28.7164C250.255 28.6709 250.482 28.5798 250.664 28.3978C250.845 28.2157 250.845 27.9427 250.891 27.7151C250.936 27.3055 250.982 26.8959 250.891 26.4863C250.346 24.4837 244.893 28.2613 243.847 28.944Z" fill="#B9464B"/>
</svg>
